<svg xmlns="http://www.w3.org/2000/svg" xmlns:xlink="http://www.w3.org/1999/xlink" width="841" height="239" viewBox="0 0 841 239">
  <defs>
    <clipPath id="clip-path">
      <rect id="Rectangle_15" data-name="Rectangle 15" width="841" height="239" rx="55" transform="translate(473 1605)" stroke="#707070" stroke-width="1"/>
    </clipPath>
  </defs>
  <g id="Group_16" data-name="Group 16" transform="translate(-473 -1605)">
    <g id="Mask_Group_16" data-name="Mask Group 16" clip-path="url(#clip-path)">
      <g id="Group_15" data-name="Group 15" transform="translate(1598.391 2542) rotate(180)">
        <rect id="Rectangle_3" data-name="Rectangle 3" width="1299.077" height="47.908" transform="translate(0 698)" fill="#eb3625"/>
        <rect id="Rectangle_4" data-name="Rectangle 4" width="1299.077" height="47.908" transform="translate(0 745.908)" fill="#ef8031"/>
        <rect id="Rectangle_5" data-name="Rectangle 5" width="1299.077" height="48.996" transform="translate(0 793.815)" fill="#f5b43f"/>
        <rect id="Rectangle_6" data-name="Rectangle 6" width="1299.077" height="45.73" transform="translate(0 842.812)" fill="#78bf39"/>
        <rect id="Rectangle_7" data-name="Rectangle 7" width="1299.077" height="50.085" transform="translate(0 888.541)" fill="#3a8dda"/>
      </g>
    </g>
    <g id="Group_10" data-name="Group 10" transform="translate(444.821 892)">
      <text id="Besøg_siden_" data-name="Besøg siden " transform="translate(95 869)" fill="#fff" font-size="94" font-family="Arial-BoldItalicMT, Arial" font-weight="700" font-style="italic"><tspan x="0" y="0">Besøg siden</tspan><tspan y="0" font-family="AdobeClean-Regular, Adobe Clean" font-weight="400" font-style="normal"> </tspan></text>
      <g id="Icon_ionic-ios-desktop" data-name="Icon ionic-ios-desktop" transform="translate(688.75 785.556)">
        <path id="Path_25" data-name="Path 25" d="M76.512,42.467a1.731,1.731,0,0,0-1.427-1.461l-7.579-.646c-4.01-1.054-6.967-5.506-7.579-9.618l-.408-2.617H28.254l-.408,2.583c-.646,4.112-3.568,8.564-7.579,9.618l-7.579.646a1.854,1.854,0,0,0-1.427,1.461A1.743,1.743,0,0,0,12.995,44.4H74.779A1.717,1.717,0,0,0,76.512,42.467Z" transform="translate(14.042 61.04)" fill="#fff"/>
        <path id="Path_26" data-name="Path 26" d="M111.843,6.233A6.017,6.017,0,0,0,107.617,4.5H8.265A6.014,6.014,0,0,0,2.25,10.442V77.785a5.974,5.974,0,0,0,1.79,4.209,5.9,5.9,0,0,0,4.176,1.733h99.427a5.858,5.858,0,0,0,4.176-1.733,6.018,6.018,0,0,0,1.79-4.209V10.442A5.89,5.89,0,0,0,111.843,6.233ZM57.929,77.785A1.981,1.981,0,1,1,59.917,75.8,1.99,1.99,0,0,1,57.929,77.785Zm50.683-9.9H7.271a1,1,0,0,1-.994-.99V11.432A2.986,2.986,0,0,1,9.26,8.461h97.364a2.986,2.986,0,0,1,2.983,2.971V66.891A1,1,0,0,1,108.612,67.882Z" fill="#fff"/>
      </g>
    </g>
  </g>
</svg>
