<svg id="Group_7" data-name="Group 7" xmlns="http://www.w3.org/2000/svg" width="960" height="918" viewBox="0 0 960 918">
  <rect id="Rectangle_1" data-name="Rectangle 1" width="960" height="918" fill="#fff"/>
  <text id="Emil_Erdem" data-name="Emil Erdem" transform="translate(389.5 64.5)" stroke="#000" stroke-width="1" font-size="35" font-family="Arial-ItalicMT, Arial" font-style="italic"><tspan x="0" y="0">Emil Erdem</tspan></text>
  <text id="MMD_studerende_2730_Herlev_Danmark_51152730" data-name="MMD studerende    2730, Herlev, Danmark     51152730" transform="translate(274.5 102.5)" stroke="#000" stroke-width="1" font-size="18" font-family="Arial-ItalicMT, Arial" font-style="italic"><tspan x="0" y="0" xml:space="preserve">MMD studerende    2730, Herlev, Danmark     51152730</tspan></text>
  <path id="Icon_material-add-location" data-name="Icon material-add-location" d="M13.314,3A5.82,5.82,0,0,0,7.5,8.814c0,4.36,5.814,10.8,5.814,10.8s5.814-6.437,5.814-10.8A5.82,5.82,0,0,0,13.314,3Zm3.322,6.644H14.144v2.492H12.483V9.644H9.992V7.983h2.492V5.492h1.661V7.983h2.492Z" transform="translate(410.6 85.194)"/>
  <path id="Icon_awesome-phone-alt" data-name="Icon awesome-phone-alt" d="M13.989,10.176l-3.15-1.35a.675.675,0,0,0-.788.194l-1.4,1.7A10.425,10.425,0,0,1,3.673,5.741l1.7-1.4a.673.673,0,0,0,.194-.788L4.222.408A.68.68,0,0,0,3.448.017L.523.692A.675.675,0,0,0,0,1.35,13.049,13.049,0,0,0,13.05,14.4a.675.675,0,0,0,.658-.523l.675-2.925A.683.683,0,0,0,13.989,10.176Z" transform="translate(624.5 89.299)"/>
  <g id="Group_3" data-name="Group 3" transform="translate(288 133)">
    <text id="kontaktinformation" transform="translate(-211 95)" stroke="#000" stroke-width="1" font-size="25" font-family="Arial-ItalicMT, Arial" font-style="italic"><tspan x="0" y="0">kontaktinformation</tspan></text>
    <text id="By:_2730_Herlev_E-mail:_emer0001_stud.kea.dk_Mobil:_51152730_" data-name="By: 2730, Herlev
E-mail: emer0001@stud.kea.dk
Mobil: 51152730 " transform="translate(-211 125)" font-size="15" font-family="ArialMT, Arial"><tspan x="0" y="14">By: 2730, Herlev</tspan><tspan x="0" y="37">E-mail: emer0001@stud.kea.dk</tspan><tspan x="0" y="60">Mobil: 51152730 </tspan></text>
  </g>
  <text id="Profil" transform="translate(400.728 200.489)" stroke="#000" stroke-width="1" font-size="25" font-family="Arial-ItalicMT, Arial" font-style="italic"><tspan x="0" y="0">Profil</tspan></text>
  <path id="Icon_ionic-md-person" data-name="Icon ionic-md-person" d="M14.34,14.34A4.92,4.92,0,1,0,9.42,9.42,4.934,4.934,0,0,0,14.34,14.34Zm0,2.46c-3.26,0-9.84,1.661-9.84,4.92v2.46H24.181v-2.46C24.181,18.461,17.6,16.8,14.34,16.8Z" transform="translate(365.319 177.149)"/>
  <text id="Emil_Erdem-2" data-name="Emil Erdem" transform="translate(389.5 64.5)" stroke="#000" stroke-width="1" font-size="35" font-family="Arial-ItalicMT, Arial" font-style="italic"><tspan x="0" y="0">Emil Erdem</tspan></text>
  <text id="MMD_studerende_2730_Herlev_Danmark_51152730-2" data-name="MMD studerende    2730, Herlev, Danmark     51152730" transform="translate(274.5 102.5)" stroke="#000" stroke-width="1" font-size="18" font-family="Arial-ItalicMT, Arial" font-style="italic"><tspan x="0" y="0" xml:space="preserve">MMD studerende    2730, Herlev, Danmark     51152730</tspan></text>
  <path id="Icon_material-add-location-2" data-name="Icon material-add-location" d="M13.314,3A5.82,5.82,0,0,0,7.5,8.814c0,4.36,5.814,10.8,5.814,10.8s5.814-6.437,5.814-10.8A5.82,5.82,0,0,0,13.314,3Zm3.322,6.644H14.144v2.492H12.483V9.644H9.992V7.983h2.492V5.492h1.661V7.983h2.492Z" transform="translate(410.6 85.194)"/>
  <path id="Icon_awesome-phone-alt-2" data-name="Icon awesome-phone-alt" d="M13.989,10.176l-3.15-1.35a.675.675,0,0,0-.788.194l-1.4,1.7A10.425,10.425,0,0,1,3.673,5.741l1.7-1.4a.673.673,0,0,0,.194-.788L4.222.408A.68.68,0,0,0,3.448.017L.523.692A.675.675,0,0,0,0,1.35,13.049,13.049,0,0,0,13.05,14.4a.675.675,0,0,0,.658-.523l.675-2.925A.683.683,0,0,0,13.989,10.176Z" transform="translate(624.5 89.299)"/>
  <g id="Group_2" data-name="Group 2" transform="translate(1083.681 215.563) rotate(90)">
    <rect id="Rectangle_3" data-name="Rectangle 3" width="187" height="3.407" transform="translate(0 698)" fill="#eb3625"/>
    <rect id="Rectangle_4" data-name="Rectangle 4" width="187" height="3.407" transform="translate(0 700.458)" fill="#ef8031"/>
    <rect id="Rectangle_5" data-name="Rectangle 5" width="187" height="3.485" transform="translate(0 702.905)" fill="#f5b43f"/>
    <rect id="Rectangle_6" data-name="Rectangle 6" width="187" height="3.252" transform="translate(0 705.461)" fill="#78bf39"/>
    <rect id="Rectangle_7" data-name="Rectangle 7" width="187" height="3.562" transform="translate(0 707.732)" fill="#3a8dda"/>
  </g>
  <g id="Group_3-2" data-name="Group 3" transform="translate(288 133)">
    <text id="kontaktinformation-2" data-name="kontaktinformation" transform="translate(-211 95)" stroke="#000" stroke-width="1" font-size="25" font-family="Arial-ItalicMT, Arial" font-style="italic"><tspan x="0" y="0">kontaktinformation</tspan></text>
    <text id="By:_2730_Herlev_E-mail:_emer0001_stud.kea.dk_Mobil:_51152730_2" data-name="By: 2730, Herlev
E-mail: emer0001@stud.kea.dk
Mobil: 51152730 " transform="translate(-211 125)" font-size="15" font-family="ArialMT, Arial"><tspan x="0" y="14">By: 2730, Herlev</tspan><tspan x="0" y="37">E-mail: emer0001@stud.kea.dk</tspan><tspan x="0" y="60">Mobil: 51152730 </tspan></text>
  </g>
  <text id="Profil-2" data-name="Profil" transform="translate(400.728 200.489)" stroke="#000" stroke-width="1" font-size="25" font-family="Arial-ItalicMT, Arial" font-style="italic"><tspan x="0" y="0">Profil</tspan></text>
  <path id="Icon_ionic-md-person-2" data-name="Icon ionic-md-person" d="M14.34,14.34A4.92,4.92,0,1,0,9.42,9.42,4.934,4.934,0,0,0,14.34,14.34Zm0,2.46c-3.26,0-9.84,1.661-9.84,4.92v2.46H24.181v-2.46C24.181,18.461,17.6,16.8,14.34,16.8Z" transform="translate(365.319 177.149)"/>
  <text id="Jeg_har_en_målrettet_tilgang_og_stræber_altid_efter_at_udføre_opgaver_på_bedst_mulig_vis_både_i_samarbejdssituationer_og_når_jeg_arbejder_selvstændigt._Samarbejde_er_en_værdi_jeg_prioriterer_højt_men_jeg_er_også_hurtig_til_at_tage_ansvar_og_sikre_at_op" data-name="Jeg har en målrettet tilgang og stræber altid efter at udføre opgaver på bedst mulig vis, både i samarbejdssituationer og når jeg arbejder selvstændigt. Samarbejde er en værdi, jeg prioriterer højt, men jeg er også hurtig til at tage ansvar og sikre, at op" transform="translate(400.728 215.563)" font-size="15" font-family="Arial-ItalicMT, Arial" font-style="italic"><tspan x="0" y="14">Jeg har en målrettet tilgang og stræber altid efter at udføre </tspan><tspan x="0" y="31">opgaver på bedst mulig vis, både i samarbejdssituationer og </tspan><tspan x="0" y="48">når jeg arbejder selvstændigt. Samarbejde er en værdi, jeg </tspan><tspan x="0" y="65">prioriterer højt, men jeg er også hurtig til at tage ansvar og </tspan><tspan x="0" y="82">sikre, at opgaverne bliver udført effektivt.</tspan><tspan x="0" y="99"></tspan><tspan x="0" y="116">Min erfaring med forskellige miljøer har givet mig en stærk </tspan><tspan x="0" y="133">evne til at tilpasse mig forskellige situationer og forstå </tspan><tspan x="0" y="150">kundernes behov og ønsker. Jeg er i stand til at lytte og </tspan><tspan x="0" y="167">kommunikere klart for at sikre, at jeg leverer det, der </tspan><tspan x="0" y="184">efterspørges.</tspan></text>
  <text id="Erhvervserfaring" transform="translate(400.728 435.637)" stroke="#000" stroke-width="1" font-size="25" font-family="Arial-ItalicMT, Arial" font-style="italic"><tspan x="0" y="0">Erhvervserfaring</tspan></text>
  <path id="Icon_metro-suitcase" data-name="Icon metro-suitcase" d="M22.722,24.007H5.957A1.458,1.458,0,0,1,4.5,22.549V13.8a37.117,37.117,0,0,0,7.289,2.758v.886a.728.728,0,0,0,.729.729h3.645a.729.729,0,0,0,.729-.729V16.56A37.139,37.139,0,0,0,24.179,13.8v8.747A1.458,1.458,0,0,1,22.722,24.007ZM15.432,15.26a.729.729,0,0,1,.729.729v.729a.729.729,0,0,1-.729.729H13.246a.728.728,0,0,1-.729-.729v-.729a.728.728,0,0,1,.729-.729Zm1.458,0a.729.729,0,0,0-.729-.729H12.517a.728.728,0,0,0-.729.729v.653A36.511,36.511,0,0,1,4.5,13.073V10.158A1.458,1.458,0,0,1,5.957,8.7H10.33V7.242a1.458,1.458,0,0,1,1.458-1.458h5.1a1.458,1.458,0,0,1,1.458,1.458V8.7h4.373a1.458,1.458,0,0,1,1.458,1.458v2.916a36.532,36.532,0,0,1-7.289,2.84V15.26Zm0-7.289a.729.729,0,0,0-.729-.729H12.517a.728.728,0,0,0-.729.729V8.7h5.1Z" transform="translate(365.321 411.012)"/>
  <g id="Group_4" data-name="Group 4" transform="translate(1083.681 449.253) rotate(90)">
    <rect id="Rectangle_3-2" data-name="Rectangle 3" width="313.827" height="3.407" transform="translate(0 698)" fill="#eb3625"/>
    <rect id="Rectangle_4-2" data-name="Rectangle 4" width="313.827" height="3.407" transform="translate(0 700.458)" fill="#ef8031"/>
    <rect id="Rectangle_5-2" data-name="Rectangle 5" width="313.827" height="3.485" transform="translate(0 702.905)" fill="#f5b43f"/>
    <rect id="Rectangle_6-2" data-name="Rectangle 6" width="313.827" height="3.252" transform="translate(0 705.461)" fill="#78bf39"/>
    <rect id="Rectangle_7-2" data-name="Rectangle 7" width="313.827" height="3.562" transform="translate(0 707.732)" fill="#3a8dda"/>
  </g>
  <text id="Region_Hovedstaden_Poder_-_2021_-_2022" data-name="Region Hovedstaden Poder - 2021 - 2022" transform="translate(400.728 473.711)" font-size="20" font-family="Arial-ItalicMT, Arial" font-style="italic"><tspan x="0" y="0">Region Hovedstaden Poder - 2021 - 2022</tspan></text>
  <text id="Mest_af_alt_skulle_jeg_opretholde_sikkerhedsprotokoller_sørge_for_håndteringen_og_sundhedsforebyggelsen_af_borgerne_på_samme_tid_med_at_kommunikerer_med_flere_afdelinger_på_arbejdspladsen." data-name="Mest af alt skulle jeg opretholde sikkerhedsprotokoller, sørge for håndteringen og sundhedsforebyggelsen af borgerne, på samme tid med at kommunikerer med flere afdelinger på arbejdspladsen." transform="translate(399.728 491.784)" font-size="15" font-family="Arial-ItalicMT, Arial" font-style="italic"><tspan x="0" y="14">Mest af alt skulle jeg opretholde sikkerhedsprotokoller, </tspan><tspan x="0" y="31">sørge for håndteringen og sundhedsforebyggelsen af </tspan><tspan x="0" y="48">borgerne, på samme tid med at kommunikerer med </tspan><tspan x="0" y="65">flere afdelinger på arbejdspladsen.</tspan></text>
  <text id="Region_Hovedstadens_Akutberedskab_-_2022_-_2022" data-name="Region Hovedstadens Akutberedskab - 2022 - 2022" transform="translate(399.728 591.858)" font-size="20" font-family="Arial-ItalicMT, Arial" font-style="italic"><tspan x="0" y="0">Region Hovedstadens Akutberedskab - 2022 - 2022</tspan></text>
  <text id="Her_bestod_mine_daglige_pligter_af_efter-håndtering_af_pandemien_mine_opgaver_bestod_af_booking_af_pcr-teste_og_vaccine_booking._" data-name="Her bestod mine daglige pligter af efter-håndtering af pandemien, mine opgaver bestod af booking af pcr-teste og vaccine booking. " transform="translate(400.728 609.932)" font-size="15" font-family="Arial-ItalicMT, Arial" font-style="italic"><tspan x="0" y="14">Her bestod mine daglige pligter af efter-håndtering af </tspan><tspan x="0" y="31">pandemien, mine opgaver bestod af booking af pcr-</tspan><tspan x="0" y="48">teste og vaccine booking. </tspan></text>
  <text id="Lærervikar_på_Kildegårdsskolen_-_2022_-_2023" data-name="Lærervikar på Kildegårdsskolen - 2022 - 2023" transform="translate(400.728 694.006)" font-size="20" font-family="Arial-ItalicMT, Arial" font-style="italic"><tspan x="0" y="0">Lærervikar på Kildegårdsskolen - 2022 - 2023</tspan></text>
  <text id="Mine_opgaver_som_lærevikar_består_af_at_assistere_i_undervisningen_og_sikre_at_eleverne_fortsætter_deres_undervisning_uden_afbrydelser._" data-name="Mine opgaver som lærevikar består af at assistere i undervisningen og sikre, at eleverne fortsætter deres undervisning uden afbrydelser. " transform="translate(400.728 712.08)" font-size="15" font-family="Arial-ItalicMT, Arial" font-style="italic"><tspan x="0" y="14">Mine opgaver som lærevikar består af at assistere i </tspan><tspan x="0" y="31">undervisningen og sikre, at eleverne fortsætter deres </tspan><tspan x="0" y="48">undervisning uden afbrydelser. </tspan></text>
  <path id="Icon_material-school" data-name="Icon material-school" d="M6.4,17.443v5.086l8.58,4.857,8.58-4.857V17.443L14.983,22.3ZM14.983,4.5,1.5,12.129l13.483,7.629,11.032-6.243V22.3h2.452V12.129Z" transform="translate(364.676 772.813)"/>
  <text id="Uddannelse_" data-name="Uddannelse " transform="translate(399.728 796.154)" stroke="#000" stroke-width="1" font-size="25" font-family="Arial-ItalicMT, Arial" font-style="italic"><tspan x="0" y="0">Uddannelse </tspan></text>
  <g id="Group_5" data-name="Group 5" transform="translate(1083.681 814.433) rotate(90)">
    <rect id="Rectangle_3-3" data-name="Rectangle 3" width="71.943" height="3.407" transform="translate(0 698)" fill="#eb3625"/>
    <rect id="Rectangle_4-3" data-name="Rectangle 4" width="71.943" height="3.407" transform="translate(0 700.458)" fill="#ef8031"/>
    <rect id="Rectangle_5-3" data-name="Rectangle 5" width="71.943" height="3.485" transform="translate(0 702.905)" fill="#f5b43f"/>
    <rect id="Rectangle_6-3" data-name="Rectangle 6" width="71.943" height="3.252" transform="translate(0 705.461)" fill="#78bf39"/>
    <rect id="Rectangle_7-3" data-name="Rectangle 7" width="71.943" height="3.562" transform="translate(0 707.732)" fill="#3a8dda"/>
  </g>
  <text id="Samfundsvidenskabelige_linje_STX_-_periode_2015_-_2018_" data-name="Samfundsvidenskabelige linje (STX) - periode 2015 - 2018 " transform="translate(399.728 815.228)" font-size="15" font-family="Arial-ItalicMT, Arial" font-style="italic"><tspan x="0" y="14">Samfundsvidenskabelige linje (STX) - periode 2015 - 2018 </tspan></text>
  <text id="Finansøkonom_Cph_Business_City_-_periode_2020_-_2021" data-name="Finansøkonom Cph Business (City) - periode 2020 - 2021" transform="translate(400.728 842.301)" font-size="15" font-family="Arial-ItalicMT, Arial" font-style="italic"><tspan x="0" y="14">Finansøkonom Cph Business (City) - periode 2020 - 2021</tspan></text>
  <text id="Multimediedesigner_KEA_Guldbergsgade_-_periode_2023_-_igangværende" data-name="Multimediedesigner KEA (Guldbergsgade) - periode 2023 - igangværende" transform="translate(399.728 869.375)" font-size="15" font-family="Arial-ItalicMT, Arial" font-style="italic"><tspan x="0" y="14">Multimediedesigner KEA (Guldbergsgade) - periode 2023 - igangværende</tspan></text>
  <g id="Group_6" data-name="Group 6" transform="translate(288 297)">
    <text id="Kompetencer" transform="translate(-211 95)" stroke="#000" stroke-width="1" font-size="25" font-family="Arial-ItalicMT, Arial" font-style="italic"><tspan x="0" y="0">Kompetencer</tspan></text>
    <text id="_-_Kundehåndtering_-_Strategisk_planlægning_-_Formidling_af_information_" data-name="- Kundehåndtering 
- Strategisk planlægning 
- Formidling af information " transform="translate(-211 125)" font-size="15" font-family="ArialMT, Arial"><tspan x="0" y="14">- Kundehåndtering </tspan><tspan x="0" y="37">- Strategisk planlægning </tspan><tspan x="0" y="60">- Formidling af information </tspan></text>
  </g>
</svg>
